{
	"asset":{
		"generator":"Khronos glTF Blender I/O v3.5.30",
		"version":"2.0"
	},
	"scene":0,
	"scenes":[
		{
			"name":"Scene",
			"nodes":[
				0
			]
		}
	],
	"nodes":[
		{
			"mesh":0,
			"name":"Block_Crystal",
			"scale":[
				1.1081618070602417,
				1.1081618070602417,
				1.1081618070602417
			],
			"translation":[
				0,
				1,
				0
			]
		}
	],
	"materials":[
		{
			"doubleSided":true,
			"name":"Atlas",
			"pbrMetallicRoughness":{
				"baseColorTexture":{
					"index":0
				},
				"metallicFactor":0,
				"roughnessFactor":0.5
			}
		}
	],
	"meshes":[
		{
			"name":"Cube.391",
			"primitives":[
				{
					"attributes":{
						"POSITION":0,
						"TEXCOORD_0":1,
						"NORMAL":2
					},
					"indices":3,
					"material":0
				}
			]
		}
	],
	"textures":[
		{
			"sampler":0,
			"source":0
		}
	],
	"images":[
		{
			"mimeType":"image/png",
			"name":"Atlas",
			"uri":"Atlas.png"
		}
	],
	"accessors":[
		{
			"bufferView":0,
			"componentType":5126,
			"count":3462,
			"max":[
				0.9932054877281189,
				0.993205189704895,
				0.993205189704895
			],
			"min":[
				-0.993205189704895,
				-0.9932055473327637,
				-0.9932053685188293
			],
			"type":"VEC3"
		},
		{
			"bufferView":1,
			"componentType":5126,
			"count":3462,
			"type":"VEC2"
		},
		{
			"bufferView":2,
			"componentType":5126,
			"count":3462,
			"type":"VEC3"
		},
		{
			"bufferView":3,
			"componentType":5123,
			"count":4968,
			"type":"SCALAR"
		}
	],
	"bufferViews":[
		{
			"buffer":0,
			"byteLength":41544,
			"byteOffset":0,
			"target":34962
		},
		{
			"buffer":0,
			"byteLength":27696,
			"byteOffset":41544,
			"target":34962
		},
		{
			"buffer":0,
			"byteLength":41544,
			"byteOffset":69240,
			"target":34962
		},
		{
			"buffer":0,
			"byteLength":9936,
			"byteOffset":110784,
			"target":34963
		}
	],
	"samplers":[
		{
			"magFilter":9728,
			"minFilter":9984
		}
	],
	"buffers":[
		{
			"byteLength":120720,
			"uri":"Block_Crystal.bin"
		}
	]
}
